# AST/ASF file generated using VICON BodyLanguage
# -----------------------------------------------
:version 1.10
:name VICON
:units
  mass 1.0
  length 0.45
  angle deg
:documentation
   .ast/.asf automatically generated from VICON data using
   VICON BodyBuilder and BodyLanguage model FoxedUp or BRILLIANT.MOD
:root
   order TX TY TZ RX RY RZ
   axis XYZ
   position 0 0 0  
   orientation 0 0 0 
:bonedata
  begin
     id 1 
     name lhipjoint
     direction 0.714689 -0.624256 0.315473 
     length 2.45343 
     axis 0 0 0  XYZ
  end
  begin
     id 2 
     name lfemur
     direction 0.34202 -0.939693 0  
     length 6.59069  
     axis 0 0 20  XYZ
    dof rx ry rz
    limits (-160.0 20.0)
           (-70.0 70.0)
           (-60.0 70.0)
  end
  begin
     id 3 
     name ltibia
     direction 0.34202 -0.939693 0   
     length 6.73476   
     axis 0 0 20   XYZ
    dof rx
    limits (-10.0 170.0)
  end
  begin
     id 4 
     name lfoot
     direction 0.0718085 -0.197292 0.977711   
     length 1.52607   
     axis -90 7.62852e-016 20   XYZ
    dof rx rz
    limits (-45.0 90.0)
           (-70.0 20.0)
  end
  begin
     id 5 
     name ltoes
     direction 1.53553e-011 -4.22024e-011 1   
     length 0.777832   
     axis -90 7.62852e-016 20   XYZ
    dof rx
    limits (-90.0 20.0)
  end
  begin
     id 6 
     name rhipjoint
     direction -0.727419 -0.612432 0.309497   
     length 2.50079  
     axis 0 0 0  XYZ 
  end
  begin
     id 7 
     name rfemur
     direction -0.34202 -0.939693 0   
     length 6.51665   
     axis 0 0 -20   XYZ
    dof rx ry rz
    limits (-160.0 20.0)
           (-70.0 70.0)
           (-70.0 60.0)
  end
  begin
     id 8 
     name rtibia
     direction -0.34202 -0.939693 0   
     length 6.48919   
     axis 0 0 -20   XYZ
    dof rx
    limits (-10.0 170.0)
 end
 begin
     id 9 
     name rfoot
     direction -0.112205 -0.308282 0.944655   
     length 1.68717  
     axis -90 -7.62852e-016 -20   XYZ
    dof rx rz
    limits (-45.0 90.0)
           (-20.0 70.0)
  end
  begin
     id 10 
     name rtoes
     direction -1.53583e-011 -4.21993e-011 1   
     length 0.846859   
     axis -90 -7.62852e-016 -20   XYZ
    dof rx
    limits (-90.0 20.0)
  end
  begin
     id 11 
     name lowerback
     direction -0.00119603 0.996364 -0.0851956   
     length 1.67242   
     axis 0 0 0   XYZ
    dof rx ry rz
    limits (-20.0 45.0)
           (-30.0 30.0)
           (-30.0 30.0)
  end
  begin
     id 12 
     name upperback
     direction -0.00531001 0.998318 0.0577248   
     length 1.64819   
     axis 0 0 0   XYZ
    dof rx ry rz
    limits (-20.0 45.0)
           (-30.0 30.0)
           (-30.0 30.0)
  end
  begin
     id 13 
     name thorax
     direction -0.00653676 0.995132 0.0983291   
     length 1.67429   
     axis 0 0 0   XYZ
    dof rx ry rz
    limits (-20.0 45.0)
           (-30.0 30.0)
           (-30.0 30.0)
  end
  begin
     id 14 
     name lowerneck
     direction 0.0141424 0.999886 0.00525412   
     length 1.59623   
     axis 0 0 0   XYZ
    dof rx ry rz
    limits (-20.0 45.0)
           (-30.0 30.0)
           (-30.0 30.0)
  end
  begin
     id 15 
     name upperneck
     direction -0.0640064 0.987178 -0.146232   
     length 1.59576   
     axis 0 0 0   XYZ
    dof rx ry rz
    limits (-20.0 45.0)
           (-30.0 30.0)
           (-30.0 30.0)
  end
  begin
     id 16
     name head
     direction -0.0222942 0.998496 -0.0500859  
     length 1.60959  
     axis 0 0 0   XYZ
    dof rx ry rz
    limits (-20.0 45.0)
           (-30.0 30.0)
           (-30.0 30.0)
  end
  begin
     id 17 
     name lclavicle
     direction 0.908549 0.392612 0.142806  
     length 2.80649  
     axis 0 0 0   XYZ
    dof ry rz
    limits (-20.0 10.0)
           (0.0 20.0)
  end
  begin
     id 18 
     name lhumerus
     direction 1 -4.48968e-011 1.08832e-028   
     length 4.2884   
     axis -180 -30 -90   XYZ
    dof rx ry rz
    limits (-60.0 90.0)
           (-90.0 90.0)
           (-90.0 90.0)
  end
  begin
     id 19
     name lradius
     direction 1 -4.48952e-011 -3.02642e-028   
     length 3.06552   
     axis -180 -30 -90   XYZ
    dof rx
    limits (-10.0 170.0)
  end
  begin
     id 20
     name lwrist
     direction 1 -4.49014e-011 1.58672e-027   
     length 1.53276   
     axis -1.65735e-015 90 90   XYZ
    dof ry
    limits (-180.0 0.0)
 end
  begin
     id 21 
     name lhand
     direction 1 -4.48928e-011 3.17344e-027   
     length 0.753045   
     axis -2.02492e-015 90 90   XYZ
    dof rx rz
    limits (-90.0 90.0)
           (-45.0 45.0)
  end
  begin
     id 22 
     name lfingers
     direction 1 -4.48958e-011 6.34687e-027   
     length 0.607124   
     axis -4.04985e-015 90 90   XYZ
    dof rx
    limits (0.0 90.0)
  end
  begin
     id 23
     name lthumb
     direction 0.707107 -6.34905e-011 0.707107   
     length 0.871712   
     axis -90 45 2.85299e-015   XYZ
    dof rx rz
    limits (-45.0 45.0)
           (-45.0 45.0)
  end
  begin
     id 24 
     name rclavicle
     direction -0.885098 0.45949 0.0739604   
     length 2.9478  
     axis 0 0 0   XYZ 
    dof ry rz
    limits (-10.0 20.0)
           (-20.0 0.0)
  end
  begin
     id 25 
     name rhumerus
     direction -1 -4.4898e-011 -2.61739e-027  
     length 4.52172   
     axis -180 30 90   XYZ
    dof rx ry rz
    limits (-90.0 60.0)
           (-90.0 90.0)
           (-90.0 90.0)
  end
  begin
     id 26 
     name rradius
     direction -1 -4.48945e-011 9.02552e-028   
     length 2.8914   
     axis -180 30 90   XYZ
    dof rx
    limits (-10.0 170.0)
  end
  begin
     id 27 
     name rwrist
     direction -1 -4.49018e-011 1.58672e-027   
     length 1.4457   
     axis -1.65735e-015 -90 -90   XYZ
    dof ry
    limits (-180.0 0.0)
  end
  begin
     id 28
     name rhand
     direction -1 -4.48825e-011 3.17344e-027   
     length 0.680541   
     axis -2.02492e-015 -90 -90   XYZ
    dof rx rz
    limits (-90.0 90.0)
           (-45.0 45.0)
  end
  begin
     id 29
     name rfingers
     direction -1 -4.49067e-011 6.34687e-027   
     length 0.54867   
     axis -4.04985e-015 -90 -90   XYZ
    dof rx
    limits (0.0 90.0)
  end
  begin
     id 30
     name rthumb
     direction -0.707107 -6.34833e-011 0.707107   
     length 0.787783   
     axis -90 -45 -2.85299e-015   XYZ
    dof rx rz
    limits (-45.0 45.0)
           (-45.0 45.0)
  end
:hierarchy
  begin
    root lhipjoint rhipjoint lowerback
    lhipjoint lfemur
    lfemur ltibia
    ltibia lfoot
    lfoot ltoes
    rhipjoint rfemur
    rfemur rtibia
    rtibia rfoot
    rfoot rtoes
    lowerback upperback
    upperback thorax
    thorax lowerneck lclavicle rclavicle
    lowerneck upperneck
    upperneck head
    lclavicle lhumerus
    lhumerus lradius
    lradius lwrist
    lwrist lhand lthumb
    lhand lfingers
    rclavicle rhumerus
    rhumerus rradius
    rradius rwrist
    rwrist rhand rthumb
    rhand rfingers
  end

#!OML:ASF E:\emotionWalksFemale\Project 1\Capture day 1\Session 1\Female1.ASF
:FULLY-SPECIFIED
:DEGREES
162
root 8.65823 19.5522 15.826 187.589 -5.73704 -179.974
lowerback 6.30695 0.069537 1.0414
upperback -5.85655 -0.026383 -0.441856
thorax -9.76361 -0.186023 -1.03738
lowerneck -8.57614 -3.68822 -7.49923
upperneck 1.12545 -4.40764 5.20086
head 2.19821 -2.14158 2.82558
rclavicle -1.03772e-014 -2.78299e-015
rhumerus 96.636 -42.9907 -64.3429
rradius 44.4139
rwrist 6.95044
rhand -4.62397 -33.8539
rfingers 7.12502
rthumb 21.1547 297.28
lclavicle -1.03772e-014 -2.78299e-015
lhumerus 112.826 27.5177 76.9296
lradius 30.3926
lwrist 2.03376
lhand -17.0066 -57.7484
lfingers 7.12502
lthumb 9.22902 -27.9704
rfemur 5.09947 18.7486 28.3971
rtibia 14.991
rfoot -45.2099 -23.4862
rtoes 68.9728
lfemur -3.70138 -21.7034 -22.504
ltibia 27.0723
lfoot -30.4369 23.211
ltoes 67.9998
163
root 8.67417 19.7416 15.7294 186.536 -6.00327 -180.12
lowerback 7.59907 0.0428703 0.494225
upperback -5.3817 -0.042199 -0.265532
thorax -10.0092 -0.122831 -0.544562
lowerneck -8.81809 -3.8177 -7.82978
upperneck 1.47511 -4.5298 5.24405
head 2.38238 -2.20046 2.89476
rclavicle -2.71962e-014 -2.88238e-015
rhumerus 98.1487 -43.8209 -66.6285
rradius 45.1772
rwrist 5.35819
rhand -5.48974 -34.3976
rfingers 7.12502
rthumb 20.3228 296.646
lclavicle -2.71962e-014 -2.88238e-015
lhumerus 114.027 27.9033 79.1587
lradius 30.3242
lwrist 1.91397
lhand -16.7679 -57.2341
lfingers 7.12502
lthumb 9.45931 -27.4664
rfemur 5.57278 20.7938 28.9945
rtibia 15.2702
rfoot -48.8874 -19.5357
rtoes 69.2673
lfemur -3.04255 -24.1714 -23.236
ltibia 27.0587
lfoot -36.0417 19.0717
ltoes 68.6428
164
root 8.68107 19.9208 15.6354 185.745 -6.16899 -180.018
lowerback 8.66798 0.0178778 0.390391
upperback -5.13463 -0.0412292 -0.134001
thorax -10.374 -0.0968042 -0.348124
lowerneck -8.5452 -3.88814 -7.96636
upperneck 1.59076 -4.62589 5.28403
head 2.38432 -2.249 2.93188
rclavicle 2.20779e-014 -3.72721e-016
rhumerus 98.9791 -44.3352 -68.5839
rradius 45.9302
rwrist 3.53362
rhand -6.61682 -35.0729
rfingers 7.12502
rthumb 19.2393 295.859
lclavicle 2.20779e-014 -3.72721e-016
lhumerus 114.786 28.2476 80.8374
lradius 30.1577
lwrist 1.95501
lhand -16.6598 -56.7408
lfingers 7.12502
lthumb 9.5636 -26.9779
rfemur 5.57159 22.4307 29.5674
rtibia 15.5902
rfoot -51.4071 -16.4439
rtoes 69.5009
lfemur -2.75978 -26.1682 -23.5957
ltibia 27.0119
lfoot -41.0665 14.4364
ltoes 69.2535
165
root 8.67949 20.0905 15.5384 185.148 -6.30854 -179.934
lowerback 10.1188 -0.0677822 0.308472
upperback -5.21015 -0.128837 0.0793103
thorax -11.331 -0.119642 -0.0547767
lowerneck -8.59354 -3.93036 -8.2191
upperneck 2.0518 -4.65008 5.29065
head 2.56085 -2.26152 2.98169
rclavicle 7.24943e-015 1.98785e-015
rhumerus 99.2458 -44.4323 -69.8189
rradius 46.4857
rwrist 1.55967
rhand -8.21863 -35.8705
rfingers 7.12502
rthumb 17.6985 294.915
lclavicle 7.24943e-015 1.98785e-015
lhumerus 115.11 28.9026 82.0716
lradius 29.8318
lwrist 2.30717
lhand -16.6682 -56.3311
lfingers 7.12502
lthumb 9.55547 -26.5678
rfemur 5.16732 23.4197 29.8046
rtibia 15.9608
rfoot -52.5884 -15.1431
rtoes 69.4837
lfemur -2.80446 -27.2566 -23.7466
ltibia 26.9115
lfoot -44.6495 11.0997
ltoes 69.232
166
root 8.67538 20.2496 15.4378 184.567 -6.47355 -180.181
lowerback 10.9804 -0.143723 -0.0159876
upperback -4.9773 -0.252718 0.121281
thorax -11.5871 -0.142403 0.199272
lowerneck -8.49311 -4.01171 -8.33925
upperneck 2.13182 -4.75689 5.38285
head 2.58554 -2.31382 3.0315
rclavicle 1.44655e-014 -4.47266e-016
rhumerus 99.6427 -44.695 -71.08
rradius 46.802
rwrist 0.107485
rhand -9.9367 -36.436
rfingers 7.12502
rthumb 16.0446 294.208
lclavicle 1.44655e-014 -4.47266e-016
lhumerus 115.604 29.4244 83.2703
lradius 29.6977
lwrist 2.91146
lhand -16.5077 -56.0545
lfingers 7.12502
lthumb 9.71034 -26.2984
rfemur 4.7456 24.1059 29.6242
rtibia 16.3454
rfoot -52.9993 -13.7273
rtoes 69.4736
lfemur -2.99532 -27.2109 -24.0232
ltibia 26.7457
lfoot -44.7993 11.2603
ltoes 69.5046
167
root 8.66901 20.398 15.3387 184.117 -6.53539 -180.417
lowerback 11.4016 -0.214436 -0.26153
upperback -4.59191 -0.36837 0.0892315
thorax -11.4039 -0.171748 0.325934
lowerneck -8.37312 -4.04234 -8.32542
upperneck 1.97955 -4.81503 5.52881
head 2.52121 -2.3397 3.07693
rclavicle -1.81236e-015 -3.03147e-015
rhumerus 100.193 -44.9459 -72.6107
rradius 47.0309
rwrist -0.442525
rhand -10.8738 -36.9986
rfingers 7.12502
rthumb 15.1421 293.575
lclavicle -1.81236e-015 -3.03147e-015
lhumerus 115.91 30.2203 83.8794
lradius 29.8259
lwrist 3.95466
lhand -16.8626 -55.8313
lfingers 7.12502
lthumb 9.36789 -26.0594
rfemur 4.10518 24.4453 29.2407
rtibia 16.6867
rfoot -52.4206 -12.2894
rtoes 69.6665
lfemur -3.43297 -26.5505 -24.1063
ltibia 26.5389
lfoot -43.8539 12.3553
ltoes 69.4233
